<?xml version="1.0" standalone="no"?>
<!DOCTYPE svg PUBLIC "-//W3C//DTD SVG 20010904//EN"
 "http://www.w3.org/TR/2001/REC-SVG-20010904/DTD/svg10.dtd">
<svg version="1.0" xmlns="http://www.w3.org/2000/svg"
 width="512.000000pt" height="511.000000pt" viewBox="0 0 512.000000 511.000000"
 preserveAspectRatio="xMidYMid meet">
<metadata>
Created by potrace 1.16, written by Peter Selinger 2001-2019
</metadata>
<g transform="translate(0.000000,511.000000) scale(0.100000,-0.100000)"
fill="#F2994A" stroke="#F2994A">
<path d="M772 5079 c-80 -40 -120 -138 -92 -225 10 -31 99 -126 431 -459 231
-231 419 -426 419 -434 0 -7 -10 -26 -21 -43 l-22 -30 -456 456 c-322 322
-463 456 -478 456 -57 0 -104 -57 -87 -106 4 -10 209 -222 456 -469 l449 -451
-26 -24 -26 -24 -452 452 c-427 426 -455 452 -488 452 -46 0 -79 -33 -79 -81
0 -32 32 -66 453 -487 l452 -453 -30 -24 c-16 -14 -34 -25 -40 -25 -5 0 -196
186 -425 414 -228 228 -429 421 -447 430 -81 41 -197 6 -241 -72 -28 -50 -30
-133 -5 -179 26 -47 888 -1067 941 -1114 54 -47 182 -112 267 -135 43 -12 130
-18 310 -24 329 -10 345 -16 521 -199 92 -95 105 -105 137 -105 50 0 77 27 77
75 0 34 -9 49 -69 116 -131 149 -200 202 -318 245 -51 19 -90 22 -308 29 -310
9 -381 26 -502 121 -41 33 -913 1062 -913 1078 0 38 64 -19 429 -382 223 -223
421 -415 439 -427 40 -28 125 -38 178 -21 30 9 88 61 242 214 112 110 212 218
223 239 11 21 21 60 21 85 2 101 6 96 -438 542 -228 229 -414 421 -414 428 0
6 7 12 14 12 17 0 1026 -845 1068 -893 35 -41 84 -132 104 -194 12 -35 18
-115 24 -298 8 -281 17 -325 87 -444 43 -72 218 -246 270 -267 38 -16 73 -6
97 28 33 46 22 65 -98 184 -178 176 -195 223 -196 559 0 190 -11 260 -52 358
-35 83 -94 170 -150 223 -115 106 -1031 870 -1070 892 -52 28 -110 28 -166 1z"/>
<path d="M4566 5030 c-265 -33 -519 -140 -721 -304 -27 -22 -132 -112 -233
-200 -231 -201 -287 -273 -343 -441 -23 -67 -23 -83 -24 -370 l0 -300 -32 -67
c-38 -81 71 34 -1293 -1368 -602 -619 -1141 -1174 -1198 -1233 -137 -142 -157
-183 -157 -327 0 -97 2 -110 32 -172 78 -166 237 -259 419 -245 91 7 182 48
240 109 23 24 547 670 1165 1437 1005 1247 1130 1398 1183 1433 86 56 137 67
366 83 264 19 346 41 479 129 98 65 151 128 318 374 271 399 339 577 350 908
9 269 -16 380 -105 467 -73 72 -125 90 -262 93 -63 1 -146 -1 -184 -6z m312
-189 c62 -44 88 -158 79 -356 -13 -295 -79 -461 -330 -827 -153 -224 -204
-283 -284 -334 -104 -67 -157 -80 -414 -98 -282 -21 -372 -51 -494 -169 -35
-34 -566 -685 -1180 -1447 -863 -1073 -1125 -1392 -1161 -1415 -39 -25 -56
-29 -113 -29 -139 1 -243 97 -258 237 -4 41 -1 64 15 99 15 35 301 334 1273
1333 690 708 1273 1313 1296 1344 98 130 119 235 103 521 -10 178 -10 215 4
280 19 89 61 179 112 238 33 39 267 250 404 363 214 178 456 274 725 288 146
7 180 3 223 -28z"/>
<path d="M3240 2233 c-30 -11 -60 -47 -60 -72 0 -14 8 -38 18 -53 9 -14 396
-371 858 -792 935 -850 882 -794 871 -914 -8 -98 -55 -166 -146 -213 -59 -30
-151 -32 -206 -3 -27 14 -270 274 -795 850 -459 504 -766 832 -782 838 -57 20
-118 -37 -103 -96 6 -23 1473 -1644 1532 -1691 50 -41 81 -57 140 -72 105 -27
204 -15 309 38 228 116 291 451 118 632 -47 48 -1671 1527 -1687 1536 -22 12
-52 17 -67 12z"/>
</g>
</svg>
